<svg version="1.1" viewBox="0.0 0.0 1280.0 640.0" fill="none" stroke="none" stroke-linecap="square" stroke-miterlimit="10" xmlns:xlink="http://www.w3.org/1999/xlink" xmlns="http://www.w3.org/2000/svg"><clipPath id="p.0"><path d="m0 0l1280.0 0l0 640.0l-1280.0 0l0 -640.0z" clip-rule="nonzero"/></clipPath><g clip-path="url(#p.0)"><path fill="#000000" fill-opacity="0.0" d="m0 0l1280.0 0l0 640.0l-1280.0 0z" fill-rule="evenodd"/><path fill="#000000" fill-opacity="0.0" d="m43.637794 152.04636l1192.7244 0l0 264.6299l-1192.7244 0z" fill-rule="evenodd"/><path fill="#4f81e6" d="m548.5 277.02258l0 54.09375q-3.1875 3.84375 -9.84375 8.296875q-6.65625 4.453125 -17.15625 7.640625q-10.5000305 3.1875 -25.40628 3.1875q-13.21875 0 -24.09375 -4.359375q-10.875 -4.359375 -18.703125 -12.796875q-7.828125 -8.4375 -12.046875 -20.671875q-4.21875 -12.234375 -4.21875 -27.984375l0 -8.53125q0 -15.75 4.078125 -28.031235q4.078125 -12.28125 11.671875 -20.71875q7.59375 -8.4375 18.09375 -12.84375q10.5 -4.40625 23.34375 -4.40625q17.81253 0 29.25003 5.765625q11.4375 5.765625 17.484375 15.9375q6.046875 10.171875 7.453125 23.296875l-27.28125 0q-1.03125 -6.9375 -3.9375 -12.09375q-2.90625 -5.15625 -8.2969055 -8.0625q-5.390625 -2.90625 -13.921875 -2.90625q-7.03125 0 -12.515625 2.859375q-5.484375 2.859375 -9.234375 8.390625q-3.75 5.53125 -5.71875 13.687485q-1.96875 8.15625 -1.96875 18.9375l0 8.71875q0 10.6875 2.0625 18.890625q2.0625 8.203125 6.140625 13.78125q4.078125 5.578125 10.078125 8.390625q6.0 2.8125 13.96875 2.8125q6.65625 0 11.109375 -1.125q4.4531555 -1.125 7.2187805 -2.765625q2.765625 -1.640625 4.265625 -3.140625l0 -24.1875l-25.68753 0l0 -20.0625l53.81253 0zm49.5 -30.093735l0 101.437485l-27.09375 0l0 -101.437485l27.09375 0zm-28.78125 -26.4375q0 -5.90625 4.125 -9.75q4.125 -3.84375 11.0625 -3.84375q6.84375 0 11.015625 3.84375q4.171875 3.84375 4.171875 9.75q0 5.90625 -4.171875 9.75q-4.171875 3.84375 -11.015625 3.84375q-6.9375 0 -11.0625 -3.84375q-4.125 -3.84375 -4.125 -9.75zm115.3125 26.4375l24.46875 0l0 98.062485q0 13.875 -6.140625 23.578125q-6.140625 9.703125 -17.109375 14.71875q-10.96875 5.015625 -25.5 5.015625q-6.375 0 -13.453125 -1.6875q-7.078125 -1.6875 -13.5 -5.25q-6.421875 -3.5625 -10.734375 -9.0l11.90625 -15.9375q4.6875 5.4375 10.875 8.484375q6.1875 3.046875 13.6875 3.046875q7.3125 0 12.375 -2.671875q5.0625 -2.671875 7.78125 -7.78125q2.71875 -5.109375 2.71875 -12.328125l0 -74.8125l2.625 -23.437485zm-68.25 51.937485l0 -1.96875q0 -11.625 2.859375 -21.140625q2.859375 -9.515625 8.15625 -16.359375q5.296875 -6.8437347 12.890625 -10.593735q7.59375 -3.75 17.15625 -3.75q10.125 0 16.96875 3.75q6.84375 3.75 11.25 10.64061q4.40625 6.890625 6.890625 16.21875q2.484375 9.328125 3.890625 20.390625l0 4.3125q-1.40625 10.59375 -4.21875 19.6875q-2.8125 9.09375 -7.40625 15.890625q-4.59375 6.796875 -11.390625 10.546875q-6.796875 3.75 -16.171875 3.75q-9.375 0 -16.921875 -3.84375q-7.546875 -3.84375 -12.890625 -10.78125q-5.34375 -6.9375 -8.203125 -16.3125q-2.859375 -9.375 -2.859375 -20.4375zm27.0 -1.96875l0 1.96875q0 6.28125 1.21875 11.71875q1.21875 5.4375 3.796875 9.609375q2.578125 4.171875 6.46875 6.46875q3.890625 2.296875 9.234375 2.296875q7.40625 0 12.09375 -3.140625q4.6875 -3.140625 7.03125 -8.671875q2.34375 -5.53125 2.71875 -12.75l0 -12.28125q-0.1875 -5.90625 -1.59375 -10.640625q-1.40625 -4.734375 -3.9375 -8.109375q-2.53125 -3.375 -6.5625 -5.25q-4.03125 -1.875 -9.5625 -1.875q-5.34375 0 -9.234375 2.390625q-3.890625 2.390625 -6.46875 6.515625q-2.578125 4.125 -3.890625 9.703125q-1.3125 5.578125 -1.3125 12.046875z" fill-rule="nonzero"/><path fill="#60cdff" d="m805.84375 328.11633l36.9375 29.25l-17.71875 15.375l-36.375 -29.25l17.15625 -15.375zm37.875 -51.1875l0 6.46875q0 15.5625 -4.171875 27.9375q-4.171875 12.375 -11.953125 21.046875q-7.78125 8.671875 -18.375 13.265625q-10.59375 4.59375 -23.53125 4.59375q-12.84375 0 -23.53125 -4.59375q-10.6875 -4.59375 -18.46875 -13.265625q-7.78125 -8.671875 -12.046875 -21.046875q-4.265625 -12.375 -4.265625 -27.9375l0 -6.46875q0 -15.65625 4.265625 -27.98436q4.265625 -12.328125 11.953125 -21.046875q7.6875 -8.71875 18.375 -13.3125q10.6875 -4.59375 23.53125 -4.59375q12.9375 0 23.578125 4.59375q10.640625 4.59375 18.421875 13.3125q7.78125 8.71875 12.0 21.046875q4.21875 12.32811 4.21875 27.98436zm-28.40625 6.46875l0 -6.65625q0 -10.875 -2.015625 -19.125q-2.015625 -8.249985 -5.8125 -13.874985q-3.796875 -5.625 -9.328125 -8.484375q-5.53125 -2.859375 -12.65625 -2.859375q-7.125 0 -12.65625 2.859375q-5.53125 2.859375 -9.328125 8.484375q-3.796875 5.625 -5.71875 13.874985q-1.921875 8.25 -1.921875 19.125l0 6.65625q0 10.78125 1.921875 19.078125q1.921875 8.296875 5.765625 13.96875q3.84375 5.671875 9.421875 8.578125q5.578125 2.90625 12.703125 2.90625q7.125 0 12.609375 -2.90625q5.484375 -2.90625 9.28125 -8.578125q3.796875 -5.671875 5.765625 -13.96875q1.96875 -8.296875 1.96875 -19.078125z" fill-rule="nonzero"/><path fill="#000000" fill-opacity="0.0" d="m43.637794 416.67844l1192.7244 0l0 71.27557l-1192.7244 0z" fill-rule="evenodd"/><path fill="#a0aec0" d="m340.12027 471.5517l0 3.71875l-17.25 0l0 -3.71875l17.25 0zm-16.34375 -30.78125l0 34.5l-4.578125 0l0 -34.5l4.578125 0zm25.668945 8.859375l0 25.640625l-4.40625 0l0 -25.640625l4.40625 0zm-4.75 -6.796875q0 -1.0625 0.65625 -1.796875q0.65625 -0.75 1.9375 -0.75q1.25 0 1.921875 0.75q0.671875 0.734375 0.671875 1.796875q0 1.015625 -0.671875 1.734375q-0.671875 0.71875 -1.921875 0.71875q-1.28125 0 -1.9375 -0.71875q-0.65625 -0.71875 -0.65625 -1.734375zm28.394775 6.796875l3.984375 0l0 25.09375q0 3.390625 -1.375 5.78125q-1.375 2.390625 -3.828125 3.640625q-2.453125 1.25 -5.65625 1.25q-1.328125 0 -3.125 -0.421875q-1.78125 -0.40625 -3.5 -1.390625q-1.71875 -0.984375 -2.875 -2.65625l2.296875 -2.59375q1.609375 1.9375 3.375 2.6875q1.765625 0.765625 3.5 0.765625q2.078125 0 3.59375 -0.78125q1.53125 -0.78125 2.359375 -2.3125q0.84375 -1.53125 0.84375 -3.75l0 -19.671875l0.40625 -5.640625zm-17.65625 13.109375l0 -0.5q0 -2.9375 0.703125 -5.34375q0.703125 -2.40625 2.015625 -4.125q1.3125 -1.734375 3.1875 -2.671875q1.875 -0.9375 4.21875 -0.9375q2.40625 0 4.21875 0.84375q1.8125 0.828125 3.078125 2.4375q1.28125 1.59375 2.015625 3.84375q0.734375 2.25 1.015625 5.09375l0 2.1875q-0.265625 2.8125 -1.015625 5.0625q-0.734375 2.25 -2.015625 3.84375q-1.265625 1.59375 -3.09375 2.4375q-1.8125 0.828125 -4.25 0.828125q-2.296875 0 -4.171875 -0.96875q-1.859375 -0.96875 -3.1875 -2.71875q-1.3125 -1.75 -2.015625 -4.125q-0.703125 -2.390625 -0.703125 -5.1875zm4.390625 -0.5l0 0.5q0 1.921875 0.390625 3.609375q0.390625 1.671875 1.203125 2.953125q0.8125 1.28125 2.09375 2.0q1.28125 0.71875 3.0625 0.71875q2.171875 0 3.59375 -0.921875q1.421875 -0.921875 2.265625 -2.4375q0.84375 -1.515625 1.3125 -3.296875l0 -5.703125q-0.25 -1.3125 -0.78125 -2.53125q-0.53125 -1.21875 -1.375 -2.171875q-0.84375 -0.96875 -2.078125 -1.53125q-1.234375 -0.578125 -2.890625 -0.578125q-1.796875 0 -3.09375 0.75q-1.296875 0.75 -2.109375 2.046875q-0.8125 1.28125 -1.203125 2.984375q-0.390625 1.6875 -0.390625 3.609375zm28.282715 -23.375l0 36.40625l-4.375 0l0 -36.40625l4.375 0zm-1.03125 22.609375l-1.828125 -0.0625q0.015625 -2.640625 0.765625 -4.875q0.765625 -2.234375 2.140625 -3.890625q1.375 -1.671875 3.28125 -2.578125q1.921875 -0.90625 4.234375 -0.90625q1.90625 0 3.421875 0.515625q1.515625 0.5 2.59375 1.609375q1.078125 1.109375 1.640625 2.875q0.5625 1.765625 0.5625 4.3125l0 16.796875l-4.40625 0l0 -16.84375q0 -2.015625 -0.59375 -3.234375q-0.578125 -1.21875 -1.71875 -1.78125q-1.140625 -0.5625 -2.796875 -0.5625q-1.640625 0 -2.984375 0.6875q-1.328125 0.6875 -2.296875 1.90625q-0.953125 1.203125 -1.484375 2.765625q-0.53125 1.546875 -0.53125 3.265625zm34.120728 -11.84375l0 3.359375l-13.859375 0l0 -3.359375l13.859375 0zm-9.171875 -6.234375l4.390625 0l0 25.53125q0 1.296875 0.390625 1.96875q0.40625 0.65625 1.046875 0.875q0.640625 0.203125 1.375 0.203125q0.546875 0 1.140625 -0.09375q0.609375 -0.109375 0.921875 -0.1875l0.015625 3.578125q-0.515625 0.171875 -1.359375 0.3125q-0.84375 0.15625 -2.015625 0.15625q-1.625 0 -2.96875 -0.640625q-1.34375 -0.640625 -2.140625 -2.140625q-0.796875 -1.5 -0.796875 -4.0625l0 -25.5zm20.798767 27.328125l6.59375 -21.09375l2.890625 0l-0.5625 4.1875l-6.71875 21.453125l-2.8125 0l0.609375 -4.546875zm-4.421875 -21.09375l5.609375 21.328125l0.40625 4.3125l-2.96875 0l-7.4375 -25.640625l4.390625 0zm20.203125 21.15625l5.359375 -21.15625l4.359375 0l-7.4375 25.640625l-2.9375 0l0.65625 -4.484375zm-5.65625 -21.15625l6.4375 20.734375l0.75 4.90625l-2.796875 0l-6.90625 -21.5l-0.5625 -4.140625l3.078125 0zm30.500793 26.109375q-2.6875 0 -4.859375 -0.90625q-2.15625 -0.90625 -3.71875 -2.5625q-1.546875 -1.671875 -2.375 -3.9375q-0.828125 -2.28125 -0.828125 -4.984375l0 -1.0q0 -3.125 0.921875 -5.578125q0.921875 -2.453125 2.515625 -4.15625q1.59375 -1.703125 3.59375 -2.578125q2.015625 -0.875 4.171875 -0.875q2.75 0 4.75 0.953125q2.015625 0.9375 3.28125 2.640625q1.28125 1.6875 1.890625 3.984375q0.625 2.28125 0.625 4.984375l0 1.953125l-19.140625 0l0 -3.578125l14.765625 0l0 -0.328125q-0.09375 -1.703125 -0.703125 -3.3125q-0.609375 -1.609375 -1.921875 -2.65625q-1.296875 -1.046875 -3.546875 -1.046875q-1.484375 0 -2.75 0.640625q-1.25 0.625 -2.15625 1.859375q-0.890625 1.21875 -1.390625 3.0q-0.5 1.78125 -0.5 4.09375l0 1.0q0 1.828125 0.5 3.4375q0.515625 1.59375 1.5 2.796875q0.984375 1.203125 2.390625 1.890625q1.421875 0.6875 3.21875 0.6875q2.328125 0 3.9375 -0.9375q1.609375 -0.953125 2.8125 -2.546875l2.65625 2.109375q-0.828125 1.265625 -2.109375 2.40625q-1.28125 1.125 -3.140625 1.84375q-1.859375 0.703125 -4.390625 0.703125zm19.859833 -26.109375l0 25.640625l-4.40625 0l0 -25.640625l4.40625 0zm-4.75 -6.796875q0 -1.0625 0.65625 -1.796875q0.65625 -0.75 1.9375 -0.75q1.25 0 1.921875 0.75q0.671875 0.734375 0.671875 1.796875q0 1.015625 -0.671875 1.734375q-0.671875 0.71875 -1.921875 0.71875q-1.28125 0 -1.9375 -0.71875q-0.65625 -0.71875 -0.65625 -1.734375zm28.394836 6.796875l3.984375 0l0 25.09375q0 3.390625 -1.375 5.78125q-1.375 2.390625 -3.828125 3.640625q-2.453125 1.25 -5.6562805 1.25q-1.328125 0 -3.125 -0.421875q-1.78125 -0.40625 -3.5 -1.390625q-1.71875 -0.984375 -2.875 -2.65625l2.296875 -2.59375q1.609375 1.9375 3.375 2.6875q1.765625 0.765625 3.5 0.765625q2.078125 0 3.5937805 -0.78125q1.53125 -0.78125 2.359375 -2.3125q0.84375 -1.53125 0.84375 -3.75l0 -19.671875l0.40625 -5.640625zm-17.65628 13.109375l0 -0.5q0 -2.9375 0.703125 -5.34375q0.703125 -2.40625 2.015625 -4.125q1.3125 -1.734375 3.1875 -2.671875q1.875 -0.9375 4.21875 -0.9375q2.40625 0 4.2187805 0.84375q1.8125 0.828125 3.078125 2.4375q1.28125 1.59375 2.015625 3.84375q0.734375 2.25 1.015625 5.09375l0 2.1875q-0.265625 2.8125 -1.015625 5.0625q-0.734375 2.25 -2.015625 3.84375q-1.265625 1.59375 -3.09375 2.4375q-1.8125305 0.828125 -4.2500305 0.828125q-2.296875 0 -4.171875 -0.96875q-1.859375 -0.96875 -3.1875 -2.71875q-1.3125 -1.75 -2.015625 -4.125q-0.703125 -2.390625 -0.703125 -5.1875zm4.390625 -0.5l0 0.5q0 1.921875 0.390625 3.609375q0.390625 1.671875 1.203125 2.953125q0.8125 1.28125 2.09375 2.0q1.28125 0.71875 3.0625 0.71875q2.1719055 0 3.5937805 -0.921875q1.421875 -0.921875 2.265625 -2.4375q0.84375 -1.515625 1.3125 -3.296875l0 -5.703125q-0.25 -1.3125 -0.78125 -2.53125q-0.53125 -1.21875 -1.375 -2.171875q-0.84375 -0.96875 -2.078125 -1.53125q-1.234375 -0.578125 -2.8906555 -0.578125q-1.796875 0 -3.09375 0.75q-1.296875 0.75 -2.109375 2.046875q-0.8125 1.28125 -1.203125 2.984375q-0.390625 1.6875 -0.390625 3.609375zm28.282684 -23.375l0 36.40625l-4.375 0l0 -36.40625l4.375 0zm-1.03125 22.609375l-1.828125 -0.0625q0.015625 -2.640625 0.765625 -4.875q0.765625 -2.234375 2.140625 -3.890625q1.375 -1.671875 3.28125 -2.578125q1.921875 -0.90625 4.234375 -0.90625q1.90625 0 3.421875 0.515625q1.515625 0.5 2.59375 1.609375q1.078125 1.109375 1.640625 2.875q0.5625 1.765625 0.5625 4.3125l0 16.796875l-4.40625 0l0 -16.84375q0 -2.015625 -0.59375 -3.234375q-0.578125 -1.21875 -1.71875 -1.78125q-1.140625 -0.5625 -2.796875 -0.5625q-1.640625 0 -2.984375 0.6875q-1.328125 0.6875 -2.296875 1.90625q-0.953125 1.203125 -1.484375 2.765625q-0.53125 1.546875 -0.53125 3.265625zm34.120728 -11.84375l0 3.359375l-13.859375 0l0 -3.359375l13.859375 0zm-9.171875 -6.234375l4.390625 0l0 25.53125q0 1.296875 0.390625 1.96875q0.40625 0.65625 1.046875 0.875q0.640625 0.203125 1.375 0.203125q0.546875 0 1.140625 -0.09375q0.609375 -0.109375 0.921875 -0.1875l0.015625 3.578125q-0.515625 0.171875 -1.359375 0.3125q-0.84375 0.15625 -2.015625 0.15625q-1.625 0 -2.96875 -0.640625q-1.34375 -0.640625 -2.140625 -2.140625q-0.796875 -1.5 -0.796875 -4.0625l0 -25.5zm45.399353 23.15625q0 -1.203125 -0.375 -2.140625q-0.359375 -0.9375 -1.28125 -1.6875q-0.90625 -0.765625 -2.5 -1.453125q-1.59375 -0.6875 -4.046875 -1.40625q-2.546875 -0.75 -4.609375 -1.6875q-2.0625 -0.9375 -3.53125 -2.140625q-1.46875 -1.21875 -2.25 -2.78125q-0.78125 -1.5625 -0.78125 -3.578125q0 -2.015625 0.828125 -3.71875q0.828125 -1.703125 2.375 -2.96875q1.546875 -1.28125 3.703125 -1.984375q2.15625 -0.71875 4.8125 -0.71875q3.890625 0 6.59375 1.484375q2.71875 1.484375 4.140625 3.875q1.421875 2.375 1.421875 5.078125l-4.546875 0q0 -1.953125 -0.828125 -3.453125q-0.828125 -1.5 -2.515625 -2.359375q-1.671875 -0.875 -4.265625 -0.875q-2.4375 0 -4.03125 0.734375q-1.578125 0.734375 -2.359375 2.0q-0.765625 1.25 -0.765625 2.859375q0 1.09375 0.453125 1.984375q0.46875 0.890625 1.453125 1.65625q0.984375 0.75 2.515625 1.390625q1.53125 0.640625 3.65625 1.21875q2.953125 0.84375 5.078125 1.859375q2.140625 1.015625 3.515625 2.28125q1.390625 1.265625 2.0625 2.875q0.671875 1.59375 0.671875 3.609375q0 2.109375 -0.859375 3.8125q-0.84375 1.703125 -2.4375 2.921875q-1.578125 1.203125 -3.796875 1.859375q-2.21875 0.640625 -4.9375 0.640625q-2.390625 0 -4.703125 -0.65625q-2.3125 -0.671875 -4.203125 -1.984375q-1.875 -1.328125 -3.0 -3.28125q-1.125 -1.96875 -1.125 -4.546875l4.546875 0q0 1.78125 0.6875 3.046875q0.6875 1.265625 1.875 2.09375q1.203125 0.828125 2.734375 1.21875q1.53125 0.390625 3.1875 0.390625q2.390625 0 4.046875 -0.65625q1.65625 -0.671875 2.515625 -1.890625q0.875 -1.234375 0.875 -2.921875zm28.12793 4.765625l8.765625 6.9375l-3.078125 2.84375l-8.625 -6.84375l2.9375 -2.9375zm8.65625 -14.390625l0 2.1875q0 3.875 -0.984375 6.96875q-0.96875 3.078125 -2.796875 5.234375q-1.8125 2.15625 -4.359375 3.296875q-2.546875 1.125 -5.703125 1.125q-3.0625 0 -5.609375 -1.125q-2.546875 -1.140625 -4.40625 -3.296875q-1.859375 -2.15625 -2.875 -5.234375q-1.015625 -3.09375 -1.015625 -6.96875l0 -2.1875q0 -3.890625 1.0 -6.953125q1.015625 -3.0625 2.859375 -5.234375q1.84375 -2.171875 4.390625 -3.3125q2.546875 -1.140625 5.609375 -1.140625q3.15625 0 5.703125 1.140625q2.5625 1.140625 4.390625 3.3125q1.828125 2.171875 2.8125 5.234375q0.984375 3.0625 0.984375 6.953125zm-4.53125 2.1875l0 -2.234375q0 -3.078125 -0.625 -5.4375q-0.625 -2.375 -1.84375 -3.984375q-1.203125 -1.625 -2.9375 -2.453125q-1.71875 -0.828125 -3.953125 -0.828125q-2.109375 0 -3.828125 0.828125q-1.71875 0.828125 -2.953125 2.453125q-1.234375 1.609375 -1.90625 3.984375q-0.65625 2.359375 -0.65625 5.4375l0 2.234375q0 3.09375 0.65625 5.484375q0.671875 2.375 1.921875 4.0q1.25 1.625 2.96875 2.453125q1.734375 0.828125 3.84375 0.828125q2.234375 0 3.953125 -0.828125q1.734375 -0.828125 2.921875 -2.453125q1.203125 -1.625 1.8125 -4.0q0.625 -2.390625 0.625 -5.484375zm32.482666 12.4375l0 3.71875l-17.25 0l0 -3.71875l17.25 0zm-16.34375 -30.78125l0 34.5l-4.578125 0l0 -34.5l4.578125 0zm25.668945 8.859375l0 25.640625l-4.40625 0l0 -25.640625l4.40625 0zm-4.75 -6.796875q0 -1.0625 0.65625 -1.796875q0.65625 -0.75 1.9375 -0.75q1.25 0 1.921875 0.75q0.671875 0.734375 0.671875 1.796875q0 1.015625 -0.671875 1.734375q-0.671875 0.71875 -1.921875 0.71875q-1.28125 0 -1.9375 -0.71875q-0.65625 -0.71875 -0.65625 -1.734375zm22.519836 6.796875l0 3.359375l-13.859375 0l0 -3.359375l13.859375 0zm-9.171875 -6.234375l4.390625 0l0 25.53125q0 1.296875 0.390625 1.96875q0.40625 0.65625 1.046875 0.875q0.640625 0.203125 1.375 0.203125q0.546875 0 1.140625 -0.09375q0.609375 -0.109375 0.921875 -0.1875l0.015625 3.578125q-0.515625 0.171875 -1.359375 0.3125q-0.84375 0.15625 -2.015625 0.15625q-1.625 0 -2.96875 -0.640625q-1.34375 -0.640625 -2.140625 -2.140625q-0.796875 -1.5 -0.796875 -4.0625l0 -25.5zm24.955017 32.34375q-2.6875 0 -4.859375 -0.90625q-2.15625 -0.90625 -3.71875 -2.5625q-1.546875 -1.671875 -2.375 -3.9375q-0.828125 -2.28125 -0.828125 -4.984375l0 -1.0q0 -3.125 0.921875 -5.578125q0.921875 -2.453125 2.515625 -4.15625q1.59375 -1.703125 3.59375 -2.578125q2.015625 -0.875 4.171875 -0.875q2.75 0 4.75 0.953125q2.015625 0.9375 3.28125 2.640625q1.28125 1.6875 1.890625 3.984375q0.625 2.28125 0.625 4.984375l0 1.953125l-19.140625 0l0 -3.578125l14.765625 0l0 -0.328125q-0.09375 -1.703125 -0.703125 -3.3125q-0.609375 -1.609375 -1.921875 -2.65625q-1.296875 -1.046875 -3.546875 -1.046875q-1.484375 0 -2.75 0.640625q-1.25 0.625 -2.15625 1.859375q-0.890625 1.21875 -1.390625 3.0q-0.5 1.78125 -0.5 4.09375l0 1.0q0 1.828125 0.5 3.4375q0.515625 1.59375 1.5 2.796875q0.984375 1.203125 2.390625 1.890625q1.421875 0.6875 3.21875 0.6875q2.328125 0 3.9375 -0.9375q1.609375 -0.953125 2.8125 -2.546875l2.65625 2.109375q-0.828125 1.265625 -2.109375 2.40625q-1.28125 1.125 -3.140625 1.84375q-1.859375 0.703125 -4.390625 0.703125zm42.27289 -10.546875l0 -24.421875l4.546875 0l0 24.421875q0 3.421875 -1.40625 5.765625q-1.390625 2.34375 -3.84375 3.5625q-2.453125 1.21875 -5.625 1.21875q-3.171875 0 -5.640625 -1.078125q-2.46875 -1.09375 -3.875 -3.3125q-1.390625 -2.234375 -1.390625 -5.625l4.578125 0q0 2.171875 0.796875 3.578125q0.8125 1.390625 2.25 2.0625q1.4375 0.65625 3.28125 0.65625q1.796875 0 3.234375 -0.765625q1.4375 -0.765625 2.265625 -2.296875q0.828125 -1.53125 0.828125 -3.765625zm10.480591 -2.453125l0 -0.546875q0 -2.78125 0.796875 -5.15625q0.8125 -2.375 2.328125 -4.140625q1.515625 -1.765625 3.671875 -2.75q2.15625 -0.984375 4.828125 -0.984375q2.703125 0 4.875 0.984375q2.171875 0.984375 3.6875 2.75q1.53125 1.765625 2.328125 4.140625q0.8125 2.375 0.8125 5.15625l0 0.546875q0 2.765625 -0.8125 5.140625q-0.796875 2.359375 -2.328125 4.125q-1.515625 1.765625 -3.671875 2.75q-2.140625 0.984375 -4.84375 0.984375q-2.703125 0 -4.859375 -0.984375q-2.15625 -0.984375 -3.6875 -2.75q-1.515625 -1.765625 -2.328125 -4.125q-0.796875 -2.375 -0.796875 -5.140625zm4.375 -0.546875l0 0.546875q0 1.921875 0.453125 3.609375q0.453125 1.6875 1.359375 3.0q0.921875 1.296875 2.28125 2.046875q1.375 0.75 3.203125 0.75q1.796875 0 3.15625 -0.75q1.375 -0.75 2.265625 -2.046875q0.90625 -1.3125 1.359375 -3.0q0.46875 -1.6875 0.46875 -3.609375l0 -0.546875q0 -1.890625 -0.46875 -3.578125q-0.453125 -1.703125 -1.375 -3.015625q-0.90625 -1.328125 -2.265625 -2.078125q-1.359375 -0.765625 -3.1875 -0.765625q-1.796875 0 -3.15625 0.765625q-1.359375 0.75 -2.28125 2.078125q-0.90625 1.3125 -1.359375 3.015625q-0.453125 1.6875 -0.453125 3.578125zm24.427979 -23.328125l4.40625 0l0 31.4375l-0.375 4.96875l-4.03125 0l0 -36.40625zm21.734375 23.375l0 0.5q0 2.796875 -0.671875 5.1875q-0.65625 2.375 -1.9375 4.125q-1.28125 1.75 -3.125 2.71875q-1.84375 0.96875 -4.234375 0.96875q-2.453125 0 -4.296875 -0.828125q-1.828125 -0.84375 -3.078125 -2.4375q-1.25 -1.59375 -2.0 -3.84375q-0.75 -2.25 -1.03125 -5.0625l0 -2.1875q0.28125 -2.84375 1.03125 -5.09375q0.75 -2.25 2.0 -3.84375q1.25 -1.609375 3.078125 -2.4375q1.828125 -0.84375 4.25 -0.84375q2.40625 0 4.28125 0.9375q1.875 0.9375 3.140625 2.671875q1.265625 1.71875 1.921875 4.125q0.671875 2.40625 0.671875 5.34375zm-4.40625 0.5l0 -0.5q0 -1.921875 -0.359375 -3.609375q-0.359375 -1.703125 -1.140625 -2.984375q-0.78125 -1.296875 -2.0625 -2.046875q-1.265625 -0.75 -3.140625 -0.75q-1.65625 0 -2.890625 0.578125q-1.21875 0.5625 -2.078125 1.53125q-0.84375 0.953125 -1.375 2.171875q-0.53125 1.21875 -0.796875 2.53125l0 5.703125q0.390625 1.65625 1.25 3.1875q0.859375 1.53125 2.3125 2.5q1.46875 0.96875 3.625 0.96875q1.78125 0 3.046875 -0.71875q1.265625 -0.71875 2.046875 -2.0q0.796875 -1.28125 1.171875 -2.953125q0.390625 -1.6875 0.390625 -3.609375zm40.35193 8.578125l8.765625 6.9375l-3.078125 2.84375l-8.625 -6.84375l2.9375 -2.9375zm8.65625 -14.390625l0 2.1875q0 3.875 -0.984375 6.96875q-0.96875 3.078125 -2.796875 5.234375q-1.8125 2.15625 -4.359375 3.296875q-2.546875 1.125 -5.703125 1.125q-3.0625 0 -5.609375 -1.125q-2.546875 -1.140625 -4.40625 -3.296875q-1.859375 -2.15625 -2.875 -5.234375q-1.015625 -3.09375 -1.015625 -6.96875l0 -2.1875q0 -3.890625 1.0 -6.953125q1.015625 -3.0625 2.859375 -5.234375q1.84375 -2.171875 4.390625 -3.3125q2.546875 -1.140625 5.609375 -1.140625q3.15625 0 5.703125 1.140625q2.5625 1.140625 4.390625 3.3125q1.828125 2.171875 2.8125 5.234375q0.984375 3.0625 0.984375 6.953125zm-4.53125 2.1875l0 -2.234375q0 -3.078125 -0.625 -5.4375q-0.625 -2.375 -1.84375 -3.984375q-1.203125 -1.625 -2.9375 -2.453125q-1.71875 -0.828125 -3.953125 -0.828125q-2.109375 0 -3.828125 0.828125q-1.71875 0.828125 -2.953125 2.453125q-1.234375 1.609375 -1.90625 3.984375q-0.65625 2.359375 -0.65625 5.4375l0 2.234375q0 3.09375 0.65625 5.484375q0.671875 2.375 1.921875 4.0q1.25 1.625 2.96875 2.453125q1.734375 0.828125 3.84375 0.828125q2.234375 0 3.953125 -0.828125q1.734375 -0.828125 2.921875 -2.453125q1.203125 -1.625 1.8125 -4.0q0.625 -2.390625 0.625 -5.484375zm26.592102 10.234375l0 -19.71875l4.40625 0l0 25.640625l-4.203125 0l-0.203125 -5.921875zm0.828125 -5.40625l1.828125 -0.046875q0 2.5625 -0.546875 4.734375q-0.53125 2.15625 -1.71875 3.75q-1.171875 1.59375 -3.09375 2.484375q-1.921875 0.875 -4.671875 0.875q-1.875 0 -3.421875 -0.53125q-1.546875 -0.546875 -2.671875 -1.6875q-1.109375 -1.140625 -1.71875 -2.96875q-0.59375 -1.828125 -0.59375 -4.375l0 -16.546875l4.375 0l0 16.59375q0 1.71875 0.390625 2.84375q0.390625 1.125 1.0625 1.78125q0.6875 0.65625 1.53125 0.921875q0.84375 0.25 1.734375 0.25q2.796875 0 4.421875 -1.078125q1.640625 -1.078125 2.359375 -2.90625q0.734375 -1.84375 0.734375 -4.09375zm20.878784 11.796875q-2.6875 0 -4.859375 -0.90625q-2.15625 -0.90625 -3.71875 -2.5625q-1.546875 -1.671875 -2.375 -3.9375q-0.828125 -2.28125 -0.828125 -4.984375l0 -1.0q0 -3.125 0.921875 -5.578125q0.921875 -2.453125 2.515625 -4.15625q1.59375 -1.703125 3.59375 -2.578125q2.015625 -0.875 4.171875 -0.875q2.75 0 4.75 0.953125q2.015625 0.9375 3.28125 2.640625q1.28125 1.6875 1.890625 3.984375q0.625 2.28125 0.625 4.984375l0 1.953125l-19.140625 0l0 -3.578125l14.765625 0l0 -0.328125q-0.09375 -1.703125 -0.703125 -3.3125q-0.609375 -1.609375 -1.921875 -2.65625q-1.296875 -1.046875 -3.546875 -1.046875q-1.484375 0 -2.75 0.640625q-1.25 0.625 -2.15625 1.859375q-0.890625 1.21875 -1.390625 3.0q-0.5 1.78125 -0.5 4.09375l0 1.0q0 1.828125 0.5 3.4375q0.515625 1.59375 1.5 2.796875q0.984375 1.203125 2.390625 1.890625q1.421875 0.6875 3.21875 0.6875q2.328125 0 3.9375 -0.9375q1.609375 -0.953125 2.8125 -2.546875l2.65625 2.109375q-0.828125 1.265625 -2.109375 2.40625q-1.28125 1.125 -3.140625 1.84375q-1.859375 0.703125 -4.390625 0.703125zm30.781738 -6.390625l0 -19.71875l4.40625 0l0 25.640625l-4.203125 0l-0.203125 -5.921875zm0.828125 -5.40625l1.828125 -0.046875q0 2.5625 -0.546875 4.734375q-0.53125 2.15625 -1.71875 3.75q-1.171875 1.59375 -3.09375 2.484375q-1.921875 0.875 -4.671875 0.875q-1.875 0 -3.421875 -0.53125q-1.546875 -0.546875 -2.671875 -1.6875q-1.109375 -1.140625 -1.71875 -2.96875q-0.59375 -1.828125 -0.59375 -4.375l0 -16.546875l4.375 0l0 16.59375q0 1.71875 0.390625 2.84375q0.390625 1.125 1.0625 1.78125q0.6875 0.65625 1.53125 0.921875q0.84375 0.25 1.734375 0.25q2.796875 0 4.421875 -1.078125q1.640625 -1.078125 2.359375 -2.90625q0.734375 -1.84375 0.734375 -4.09375zm20.878784 11.796875q-2.6875 0 -4.859375 -0.90625q-2.15625 -0.90625 -3.71875 -2.5625q-1.546875 -1.671875 -2.375 -3.9375q-0.828125 -2.28125 -0.828125 -4.984375l0 -1.0q0 -3.125 0.921875 -5.578125q0.921875 -2.453125 2.515625 -4.15625q1.59375 -1.703125 3.59375 -2.578125q2.015625 -0.875 4.171875 -0.875q2.75 0 4.75 0.953125q2.015625 0.9375 3.28125 2.640625q1.28125 1.6875 1.890625 3.984375q0.625 2.28125 0.625 4.984375l0 1.953125l-19.140625 0l0 -3.578125l14.765625 0l0 -0.328125q-0.09375 -1.703125 -0.703125 -3.3125q-0.609375 -1.609375 -1.921875 -2.65625q-1.296875 -1.046875 -3.546875 -1.046875q-1.484375 0 -2.75 0.640625q-1.25 0.625 -2.15625 1.859375q-0.890625 1.21875 -1.390625 3.0q-0.5 1.78125 -0.5 4.09375l0 1.0q0 1.828125 0.5 3.4375q0.515625 1.59375 1.5 2.796875q0.984375 1.203125 2.390625 1.890625q1.421875 0.6875 3.21875 0.6875q2.328125 0 3.9375 -0.9375q1.609375 -0.953125 2.8125 -2.546875l2.65625 2.109375q-0.828125 1.265625 -2.109375 2.40625q-1.28125 1.125 -3.140625 1.84375q-1.859375 0.703125 -4.390625 0.703125z" fill-rule="nonzero"/></g></svg>